<mxfile host="app.diagrams.net" modified="2022-10-30T20:11:01.921Z" agent="5.0 (iPad; CPU OS 15_6 like Mac OS X) AppleWebKit/605.1.15 (KHTML, like Gecko) CriOS/107.0.5304.66 Mobile/15E148 Safari/604.1" etag="r_IommjPQhGFB3SSO8Sb" version="20.5.1" type="github" pages="3">
  <diagram id="Lo3YdGh6w8GqEGYaXYKp" name="Page-1">
    <mxGraphModel dx="2860" dy="1178" grid="1" gridSize="10" guides="1" tooltips="1" connect="1" arrows="1" fold="1" page="1" pageScale="1" pageWidth="850" pageHeight="1100" math="0" shadow="0">
      <root>
        <mxCell id="0" />
        <mxCell id="1" parent="0" />
        <mxCell id="ZY3yO8MziK32Aiz-aUxb-2" value="User" style="shape=umlActor;verticalLabelPosition=bottom;verticalAlign=top;html=1;outlineConnect=0;" vertex="1" parent="1">
          <mxGeometry x="-100" y="460" width="70" height="190" as="geometry" />
        </mxCell>
        <mxCell id="ZY3yO8MziK32Aiz-aUxb-4" value="Dev&amp;nbsp;" style="shape=umlActor;verticalLabelPosition=bottom;verticalAlign=top;html=1;" vertex="1" parent="1">
          <mxGeometry x="680" y="460" width="80" height="185" as="geometry" />
        </mxCell>
        <mxCell id="ZY3yO8MziK32Aiz-aUxb-6" value="" style="verticalLabelPosition=bottom;verticalAlign=top;html=1;shape=mxgraph.basic.rect;fillColor2=none;strokeWidth=1;size=20;indent=0;" vertex="1" parent="1">
          <mxGeometry x="200" y="40" width="310" height="930" as="geometry" />
        </mxCell>
        <mxCell id="ZY3yO8MziK32Aiz-aUxb-10" value="Approval&amp;nbsp;" style="ellipse;whiteSpace=wrap;html=1;" vertex="1" parent="1">
          <mxGeometry x="290" y="280" width="140" height="120" as="geometry" />
        </mxCell>
        <mxCell id="ZY3yO8MziK32Aiz-aUxb-11" value="Chatting&amp;nbsp;" style="ellipse;whiteSpace=wrap;html=1;" vertex="1" parent="1">
          <mxGeometry x="280" y="740" width="140" height="120" as="geometry" />
        </mxCell>
        <mxCell id="ZY3yO8MziK32Aiz-aUxb-12" value="Acceptance&amp;nbsp;" style="ellipse;whiteSpace=wrap;html=1;" vertex="1" parent="1">
          <mxGeometry x="210" y="450" width="140" height="70" as="geometry" />
        </mxCell>
        <mxCell id="ZY3yO8MziK32Aiz-aUxb-13" value="Declining&amp;nbsp;" style="ellipse;whiteSpace=wrap;html=1;" vertex="1" parent="1">
          <mxGeometry x="370" y="450" width="140" height="70" as="geometry" />
        </mxCell>
        <mxCell id="ZY3yO8MziK32Aiz-aUxb-18" value="“Include”" style="endArrow=open;endSize=12;dashed=1;html=1;rounded=0;entryX=0.357;entryY=0;entryDx=0;entryDy=0;exitX=1;exitY=1;exitDx=0;exitDy=0;entryPerimeter=0;" edge="1" parent="1" source="ZY3yO8MziK32Aiz-aUxb-10" target="ZY3yO8MziK32Aiz-aUxb-13">
          <mxGeometry width="160" relative="1" as="geometry">
            <mxPoint x="440" y="450" as="sourcePoint" />
            <mxPoint x="540" y="580" as="targetPoint" />
            <Array as="points" />
          </mxGeometry>
        </mxCell>
        <mxCell id="ZY3yO8MziK32Aiz-aUxb-19" value="“Includie”" style="endArrow=open;endSize=12;dashed=1;html=1;rounded=0;exitX=0.357;exitY=1;exitDx=0;exitDy=0;entryX=0.5;entryY=0;entryDx=0;entryDy=0;exitPerimeter=0;" edge="1" parent="1" source="ZY3yO8MziK32Aiz-aUxb-10" target="ZY3yO8MziK32Aiz-aUxb-12">
          <mxGeometry width="160" relative="1" as="geometry">
            <mxPoint x="320.03999999999996" y="380.00000000000006" as="sourcePoint" />
            <mxPoint x="319.49747468305804" y="450.21126265847096" as="targetPoint" />
          </mxGeometry>
        </mxCell>
        <mxCell id="ZY3yO8MziK32Aiz-aUxb-20" value="Proposing&amp;nbsp;" style="ellipse;whiteSpace=wrap;html=1;" vertex="1" parent="1">
          <mxGeometry x="290" y="180" width="140" height="70" as="geometry" />
        </mxCell>
        <mxCell id="ZY3yO8MziK32Aiz-aUxb-22" value="" style="endArrow=none;html=1;rounded=0;entryX=0;entryY=0.5;entryDx=0;entryDy=0;" edge="1" parent="1" source="ZY3yO8MziK32Aiz-aUxb-2" target="ZY3yO8MziK32Aiz-aUxb-20">
          <mxGeometry width="50" height="50" relative="1" as="geometry">
            <mxPoint x="400" y="420" as="sourcePoint" />
            <mxPoint x="450" y="370" as="targetPoint" />
          </mxGeometry>
        </mxCell>
        <mxCell id="ZY3yO8MziK32Aiz-aUxb-23" value="Approval results&amp;nbsp;" style="ellipse;whiteSpace=wrap;html=1;" vertex="1" parent="1">
          <mxGeometry x="290" y="590" width="140" height="70" as="geometry" />
        </mxCell>
        <mxCell id="ZY3yO8MziK32Aiz-aUxb-24" value="" style="endArrow=none;html=1;rounded=0;entryX=0;entryY=0.5;entryDx=0;entryDy=0;" edge="1" parent="1" source="ZY3yO8MziK32Aiz-aUxb-2" target="ZY3yO8MziK32Aiz-aUxb-23">
          <mxGeometry width="50" height="50" relative="1" as="geometry">
            <mxPoint x="380" y="470" as="sourcePoint" />
            <mxPoint x="430" y="420" as="targetPoint" />
          </mxGeometry>
        </mxCell>
        <mxCell id="ZY3yO8MziK32Aiz-aUxb-25" value="" style="endArrow=none;html=1;rounded=0;entryX=0;entryY=0;entryDx=0;entryDy=0;" edge="1" parent="1" source="ZY3yO8MziK32Aiz-aUxb-2" target="ZY3yO8MziK32Aiz-aUxb-11">
          <mxGeometry width="50" height="50" relative="1" as="geometry">
            <mxPoint x="420" y="620" as="sourcePoint" />
            <mxPoint x="470" y="570" as="targetPoint" />
          </mxGeometry>
        </mxCell>
        <mxCell id="ZY3yO8MziK32Aiz-aUxb-26" value="" style="endArrow=none;html=1;rounded=0;exitX=1;exitY=0.5;exitDx=0;exitDy=0;entryX=0;entryY=1;entryDx=0;entryDy=0;entryPerimeter=0;" edge="1" parent="1" source="ZY3yO8MziK32Aiz-aUxb-11" target="ZY3yO8MziK32Aiz-aUxb-4">
          <mxGeometry width="50" height="50" relative="1" as="geometry">
            <mxPoint x="590" y="590" as="sourcePoint" />
            <mxPoint x="640" y="540" as="targetPoint" />
          </mxGeometry>
        </mxCell>
        <mxCell id="ZY3yO8MziK32Aiz-aUxb-27" value="" style="endArrow=none;html=1;rounded=0;entryX=0.5;entryY=0.5;entryDx=0;entryDy=0;entryPerimeter=0;exitX=1;exitY=0.5;exitDx=0;exitDy=0;" edge="1" parent="1" source="ZY3yO8MziK32Aiz-aUxb-10" target="ZY3yO8MziK32Aiz-aUxb-4">
          <mxGeometry width="50" height="50" relative="1" as="geometry">
            <mxPoint x="600" y="570" as="sourcePoint" />
            <mxPoint x="650" y="520" as="targetPoint" />
          </mxGeometry>
        </mxCell>
      </root>
    </mxGraphModel>
  </diagram>
  <diagram id="6zZkOz4F07Qv6fFIsyda" name="Page-2">
    <mxGraphModel dx="1237" dy="725" grid="1" gridSize="10" guides="1" tooltips="1" connect="1" arrows="1" fold="1" page="1" pageScale="1" pageWidth="850" pageHeight="1100" math="0" shadow="0">
      <root>
        <mxCell id="0" />
        <mxCell id="1" parent="0" />
        <mxCell id="lpQYsGBrBhVualsfjgMM-1" value="" style="verticalLabelPosition=bottom;verticalAlign=top;html=1;shape=mxgraph.basic.rect;fillColor2=none;strokeWidth=1;size=20;indent=0;" vertex="1" parent="1">
          <mxGeometry x="280" y="50" width="310" height="630" as="geometry" />
        </mxCell>
        <mxCell id="QMcDLbzQUOwWM1Ma92lr-1" value="Searching&amp;nbsp;" style="ellipse;whiteSpace=wrap;html=1;" vertex="1" parent="1">
          <mxGeometry x="365" y="60" width="140" height="100" as="geometry" />
        </mxCell>
        <mxCell id="ZqsMQK3lF8d2AI-OY7J7-1" value="Picking a dev" style="ellipse;whiteSpace=wrap;html=1;" vertex="1" parent="1">
          <mxGeometry x="355" y="500" width="140" height="100" as="geometry" />
        </mxCell>
        <mxCell id="ZqsMQK3lF8d2AI-OY7J7-2" value="Filtering&amp;nbsp;" style="ellipse;whiteSpace=wrap;html=1;" vertex="1" parent="1">
          <mxGeometry x="355" y="350" width="140" height="90" as="geometry" />
        </mxCell>
        <mxCell id="ZqsMQK3lF8d2AI-OY7J7-3" value="&amp;lt;extends&amp;gt;" style="endArrow=open;endSize=12;dashed=1;html=1;rounded=0;entryX=0.5;entryY=0;entryDx=0;entryDy=0;exitX=0.464;exitY=1;exitDx=0;exitDy=0;exitPerimeter=0;" edge="1" parent="1" source="QMcDLbzQUOwWM1Ma92lr-1" target="ZqsMQK3lF8d2AI-OY7J7-2">
          <mxGeometry x="-0.0034" width="160" relative="1" as="geometry">
            <mxPoint x="440" y="230" as="sourcePoint" />
            <mxPoint x="640" y="440" as="targetPoint" />
            <Array as="points">
              <mxPoint x="420" y="280" />
            </Array>
            <mxPoint as="offset" />
          </mxGeometry>
        </mxCell>
        <mxCell id="ZqsMQK3lF8d2AI-OY7J7-13" value="Actor" style="shape=umlActor;verticalLabelPosition=bottom;verticalAlign=top;html=1;" vertex="1" parent="1">
          <mxGeometry x="60" y="290" width="80" height="180" as="geometry" />
        </mxCell>
        <mxCell id="ZqsMQK3lF8d2AI-OY7J7-14" value="" style="endArrow=none;html=1;rounded=0;exitX=1;exitY=0.3333333333333333;exitDx=0;exitDy=0;exitPerimeter=0;entryX=0;entryY=0.5;entryDx=0;entryDy=0;" edge="1" parent="1" source="ZqsMQK3lF8d2AI-OY7J7-13" target="QMcDLbzQUOwWM1Ma92lr-1">
          <mxGeometry width="50" height="50" relative="1" as="geometry">
            <mxPoint x="470" y="290" as="sourcePoint" />
            <mxPoint x="520" y="240" as="targetPoint" />
          </mxGeometry>
        </mxCell>
        <mxCell id="ZqsMQK3lF8d2AI-OY7J7-15" value="" style="endArrow=none;html=1;rounded=0;entryX=0;entryY=0.5;entryDx=0;entryDy=0;" edge="1" parent="1" source="ZqsMQK3lF8d2AI-OY7J7-13" target="ZqsMQK3lF8d2AI-OY7J7-2">
          <mxGeometry width="50" height="50" relative="1" as="geometry">
            <mxPoint x="470" y="290" as="sourcePoint" />
            <mxPoint x="520" y="240" as="targetPoint" />
          </mxGeometry>
        </mxCell>
        <mxCell id="ZqsMQK3lF8d2AI-OY7J7-16" value="" style="endArrow=none;html=1;rounded=0;" edge="1" parent="1" source="ZqsMQK3lF8d2AI-OY7J7-13" target="ZqsMQK3lF8d2AI-OY7J7-1">
          <mxGeometry width="50" height="50" relative="1" as="geometry">
            <mxPoint x="460" y="400" as="sourcePoint" />
            <mxPoint x="510" y="350" as="targetPoint" />
          </mxGeometry>
        </mxCell>
      </root>
    </mxGraphModel>
  </diagram>
  <diagram id="SNBM5PbqsU0TTmGmdy6D" name="Page-3">
    <mxGraphModel dx="1237" dy="725" grid="1" gridSize="10" guides="1" tooltips="1" connect="1" arrows="1" fold="1" page="1" pageScale="1" pageWidth="850" pageHeight="1100" math="0" shadow="0">
      <root>
        <mxCell id="0" />
        <mxCell id="1" parent="0" />
        <mxCell id="PEM2BeyOKRfzRq0CKwj5-1" value="Us" style="verticalLabelPosition=bottom;verticalAlign=top;html=1;shape=mxgraph.basic.rect;fillColor2=none;strokeWidth=1;size=20;indent=5;" vertex="1" parent="1">
          <mxGeometry x="100" y="140" width="200" height="620" as="geometry" />
        </mxCell>
        <mxCell id="PEM2BeyOKRfzRq0CKwj5-2" value="" style="verticalLabelPosition=bottom;verticalAlign=top;html=1;shape=mxgraph.basic.rect;fillColor2=none;strokeWidth=1;size=20;indent=5;" vertex="1" parent="1">
          <mxGeometry x="300" y="140" width="320" height="620" as="geometry" />
        </mxCell>
        <mxCell id="PEM2BeyOKRfzRq0CKwj5-5" value="user" style="text;html=1;strokeColor=none;fillColor=none;align=center;verticalAlign=middle;whiteSpace=wrap;rounded=0;" vertex="1" parent="1">
          <mxGeometry x="170" y="150" width="60" height="30" as="geometry" />
        </mxCell>
        <mxCell id="PEM2BeyOKRfzRq0CKwj5-6" value="Us" style="verticalLabelPosition=bottom;verticalAlign=top;html=1;shape=mxgraph.basic.rect;fillColor2=none;strokeWidth=1;size=20;indent=5;" vertex="1" parent="1">
          <mxGeometry x="620" y="140" width="200" height="620" as="geometry" />
        </mxCell>
        <mxCell id="PEM2BeyOKRfzRq0CKwj5-7" value="Dev" style="text;html=1;strokeColor=none;fillColor=none;align=center;verticalAlign=middle;whiteSpace=wrap;rounded=0;" vertex="1" parent="1">
          <mxGeometry x="700" y="125" width="60" height="55" as="geometry" />
        </mxCell>
        <mxCell id="PEM2BeyOKRfzRq0CKwj5-8" value="System" style="text;html=1;strokeColor=none;fillColor=none;align=center;verticalAlign=middle;whiteSpace=wrap;rounded=0;" vertex="1" parent="1">
          <mxGeometry x="425" y="150" width="60" height="30" as="geometry" />
        </mxCell>
        <mxCell id="PEM2BeyOKRfzRq0CKwj5-11" value="Login&amp;nbsp;" style="text;html=1;strokeColor=none;fillColor=none;align=center;verticalAlign=middle;whiteSpace=wrap;rounded=0;" vertex="1" parent="1">
          <mxGeometry x="160" y="210" width="60" height="50" as="geometry" />
        </mxCell>
        <mxCell id="PEM2BeyOKRfzRq0CKwj5-12" value="Search for dev" style="text;html=1;strokeColor=none;fillColor=none;align=center;verticalAlign=middle;whiteSpace=wrap;rounded=0;" vertex="1" parent="1">
          <mxGeometry x="170" y="300" width="60" height="50" as="geometry" />
        </mxCell>
        <mxCell id="PEM2BeyOKRfzRq0CKwj5-13" value="Search for dev" style="text;html=1;strokeColor=none;fillColor=none;align=center;verticalAlign=middle;whiteSpace=wrap;rounded=0;" vertex="1" parent="1">
          <mxGeometry x="425" y="200" width="60" height="30" as="geometry" />
        </mxCell>
        <mxCell id="PEM2BeyOKRfzRq0CKwj5-14" value="Filtering&amp;nbsp;" style="text;html=1;strokeColor=none;fillColor=none;align=center;verticalAlign=middle;whiteSpace=wrap;rounded=0;" vertex="1" parent="1">
          <mxGeometry x="440" y="280" width="60" height="40" as="geometry" />
        </mxCell>
        <mxCell id="PEM2BeyOKRfzRq0CKwj5-15" value="Picking dev" style="text;html=1;strokeColor=none;fillColor=none;align=center;verticalAlign=middle;whiteSpace=wrap;rounded=0;" vertex="1" parent="1">
          <mxGeometry x="150" y="370" width="60" height="80" as="geometry" />
        </mxCell>
        <mxCell id="PEM2BeyOKRfzRq0CKwj5-18" value="Send proposal&amp;nbsp;" style="text;html=1;strokeColor=none;fillColor=none;align=center;verticalAlign=middle;whiteSpace=wrap;rounded=0;" vertex="1" parent="1">
          <mxGeometry x="160" y="470" width="60" height="60" as="geometry" />
        </mxCell>
        <mxCell id="PEM2BeyOKRfzRq0CKwj5-19" value="Approval for proposals&amp;nbsp;" style="text;html=1;strokeColor=none;fillColor=none;align=center;verticalAlign=middle;whiteSpace=wrap;rounded=0;" vertex="1" parent="1">
          <mxGeometry x="425" y="360" width="60" height="70" as="geometry" />
        </mxCell>
        <mxCell id="PEM2BeyOKRfzRq0CKwj5-20" value="Approval results&amp;nbsp;" style="text;html=1;strokeColor=none;fillColor=none;align=center;verticalAlign=middle;whiteSpace=wrap;rounded=0;" vertex="1" parent="1">
          <mxGeometry x="425" y="460" width="60" height="80" as="geometry" />
        </mxCell>
        <mxCell id="PEM2BeyOKRfzRq0CKwj5-21" value="Chatting&amp;nbsp;" style="text;html=1;strokeColor=none;fillColor=none;align=center;verticalAlign=middle;whiteSpace=wrap;rounded=0;" vertex="1" parent="1">
          <mxGeometry x="430" y="550" width="60" height="80" as="geometry" />
        </mxCell>
        <mxCell id="PEM2BeyOKRfzRq0CKwj5-22" value="Notification&amp;nbsp;" style="text;html=1;strokeColor=none;fillColor=none;align=center;verticalAlign=middle;whiteSpace=wrap;rounded=0;" vertex="1" parent="1">
          <mxGeometry x="690" y="220" width="60" height="30" as="geometry" />
        </mxCell>
        <mxCell id="PEM2BeyOKRfzRq0CKwj5-23" value="Accept / declines" style="text;html=1;strokeColor=none;fillColor=none;align=center;verticalAlign=middle;whiteSpace=wrap;rounded=0;" vertex="1" parent="1">
          <mxGeometry x="660" y="300" width="100" height="130" as="geometry" />
        </mxCell>
        <mxCell id="PEM2BeyOKRfzRq0CKwj5-24" value="View chat room" style="text;html=1;strokeColor=none;fillColor=none;align=center;verticalAlign=middle;whiteSpace=wrap;rounded=0;" vertex="1" parent="1">
          <mxGeometry x="645" y="450" width="130" height="70" as="geometry" />
        </mxCell>
        <mxCell id="PEM2BeyOKRfzRq0CKwj5-25" value="View chat room&amp;nbsp;" style="text;html=1;strokeColor=none;fillColor=none;align=center;verticalAlign=middle;whiteSpace=wrap;rounded=0;" vertex="1" parent="1">
          <mxGeometry x="170" y="560" width="60" height="100" as="geometry" />
        </mxCell>
        <mxCell id="PEM2BeyOKRfzRq0CKwj5-28" value="" style="shape=partialRectangle;whiteSpace=wrap;html=1;bottom=0;right=0;fillColor=none;" vertex="1" parent="1">
          <mxGeometry x="150" y="210" width="120" height="60" as="geometry" />
        </mxCell>
        <mxCell id="PEM2BeyOKRfzRq0CKwj5-29" value="" style="shape=partialRectangle;whiteSpace=wrap;html=1;top=0;left=0;fillColor=none;" vertex="1" parent="1">
          <mxGeometry x="150" y="210" width="120" height="60" as="geometry" />
        </mxCell>
        <mxCell id="PEM2BeyOKRfzRq0CKwj5-35" value="Search for dev" style="ellipse;whiteSpace=wrap;html=1;" vertex="1" parent="1">
          <mxGeometry x="400" y="180" width="140" height="70" as="geometry" />
        </mxCell>
        <mxCell id="PEM2BeyOKRfzRq0CKwj5-36" value="Approval&amp;nbsp;" style="ellipse;whiteSpace=wrap;html=1;" vertex="1" parent="1">
          <mxGeometry x="390" y="360" width="140" height="70" as="geometry" />
        </mxCell>
        <mxCell id="PEM2BeyOKRfzRq0CKwj5-38" value="Approval results&amp;nbsp;" style="ellipse;whiteSpace=wrap;html=1;" vertex="1" parent="1">
          <mxGeometry x="390" y="460" width="140" height="65" as="geometry" />
        </mxCell>
        <mxCell id="PEM2BeyOKRfzRq0CKwj5-39" value="Chatting" style="ellipse;whiteSpace=wrap;html=1;" vertex="1" parent="1">
          <mxGeometry x="400" y="575" width="140" height="70" as="geometry" />
        </mxCell>
        <mxCell id="PEM2BeyOKRfzRq0CKwj5-43" value="" style="shape=partialRectangle;whiteSpace=wrap;html=1;bottom=0;right=0;fillColor=none;" vertex="1" parent="1">
          <mxGeometry x="640" y="350" width="120" height="70" as="geometry" />
        </mxCell>
        <mxCell id="PEM2BeyOKRfzRq0CKwj5-44" value="" style="shape=partialRectangle;whiteSpace=wrap;html=1;top=0;left=0;fillColor=none;" vertex="1" parent="1">
          <mxGeometry x="640" y="355" width="120" height="60" as="geometry" />
        </mxCell>
        <mxCell id="PEM2BeyOKRfzRq0CKwj5-45" value="" style="shape=partialRectangle;whiteSpace=wrap;html=1;bottom=0;right=0;fillColor=none;" vertex="1" parent="1">
          <mxGeometry x="650" y="475" width="120" height="60" as="geometry" />
        </mxCell>
        <mxCell id="PEM2BeyOKRfzRq0CKwj5-46" value="" style="shape=partialRectangle;whiteSpace=wrap;html=1;top=0;left=0;fillColor=none;" vertex="1" parent="1">
          <mxGeometry x="650" y="475" width="120" height="60" as="geometry" />
        </mxCell>
        <mxCell id="PEM2BeyOKRfzRq0CKwj5-47" value="" style="shape=partialRectangle;whiteSpace=wrap;html=1;bottom=0;right=0;fillColor=none;" vertex="1" parent="1">
          <mxGeometry x="660" y="220" width="120" height="60" as="geometry" />
        </mxCell>
        <mxCell id="PEM2BeyOKRfzRq0CKwj5-48" value="" style="shape=partialRectangle;whiteSpace=wrap;html=1;top=0;left=0;fillColor=none;" vertex="1" parent="1">
          <mxGeometry x="660" y="220" width="120" height="60" as="geometry" />
        </mxCell>
        <mxCell id="PEM2BeyOKRfzRq0CKwj5-49" value="" style="shape=partialRectangle;whiteSpace=wrap;html=1;bottom=0;right=0;fillColor=none;" vertex="1" parent="1">
          <mxGeometry x="425" y="280" width="120" height="60" as="geometry" />
        </mxCell>
        <mxCell id="PEM2BeyOKRfzRq0CKwj5-52" value="" style="shape=partialRectangle;whiteSpace=wrap;html=1;top=0;left=0;fillColor=none;" vertex="1" parent="1">
          <mxGeometry x="425" y="285" width="120" height="50" as="geometry" />
        </mxCell>
        <mxCell id="PEM2BeyOKRfzRq0CKwj5-53" value="" style="shape=partialRectangle;whiteSpace=wrap;html=1;bottom=0;right=0;fillColor=none;" vertex="1" parent="1">
          <mxGeometry x="150" y="300" width="120" height="60" as="geometry" />
        </mxCell>
        <mxCell id="PEM2BeyOKRfzRq0CKwj5-54" value="" style="shape=partialRectangle;whiteSpace=wrap;html=1;top=0;left=0;fillColor=none;" vertex="1" parent="1">
          <mxGeometry x="150" y="300" width="120" height="60" as="geometry" />
        </mxCell>
        <mxCell id="PEM2BeyOKRfzRq0CKwj5-55" value="" style="shape=partialRectangle;whiteSpace=wrap;html=1;bottom=0;right=0;fillColor=none;" vertex="1" parent="1">
          <mxGeometry x="150" y="390" width="120" height="60" as="geometry" />
        </mxCell>
        <mxCell id="PEM2BeyOKRfzRq0CKwj5-56" value="" style="shape=partialRectangle;whiteSpace=wrap;html=1;top=0;left=0;fillColor=none;" vertex="1" parent="1">
          <mxGeometry x="150" y="390" width="120" height="60" as="geometry" />
        </mxCell>
        <mxCell id="PEM2BeyOKRfzRq0CKwj5-58" value="" style="shape=partialRectangle;whiteSpace=wrap;html=1;bottom=0;right=0;fillColor=none;" vertex="1" parent="1">
          <mxGeometry x="150" y="480" width="120" height="60" as="geometry" />
        </mxCell>
        <mxCell id="PEM2BeyOKRfzRq0CKwj5-59" value="" style="shape=partialRectangle;whiteSpace=wrap;html=1;top=0;left=0;fillColor=none;" vertex="1" parent="1">
          <mxGeometry x="150" y="480" width="120" height="60" as="geometry" />
        </mxCell>
        <mxCell id="PEM2BeyOKRfzRq0CKwj5-60" value="" style="shape=partialRectangle;whiteSpace=wrap;html=1;bottom=0;right=0;fillColor=none;" vertex="1" parent="1">
          <mxGeometry x="140" y="585" width="120" height="60" as="geometry" />
        </mxCell>
        <mxCell id="PEM2BeyOKRfzRq0CKwj5-61" value="" style="shape=partialRectangle;whiteSpace=wrap;html=1;top=0;left=0;fillColor=none;" vertex="1" parent="1">
          <mxGeometry x="140" y="585" width="120" height="60" as="geometry" />
        </mxCell>
        <mxCell id="PEM2BeyOKRfzRq0CKwj5-62" value="" style="endArrow=none;html=1;rounded=0;exitX=1;exitY=0.5;exitDx=0;exitDy=0;entryX=0;entryY=0.5;entryDx=0;entryDy=0;" edge="1" parent="1" source="PEM2BeyOKRfzRq0CKwj5-54" target="PEM2BeyOKRfzRq0CKwj5-35">
          <mxGeometry width="50" height="50" relative="1" as="geometry">
            <mxPoint x="500" y="500" as="sourcePoint" />
            <mxPoint x="550" y="450" as="targetPoint" />
          </mxGeometry>
        </mxCell>
        <mxCell id="PEM2BeyOKRfzRq0CKwj5-63" value="" style="endArrow=none;html=1;rounded=0;entryX=0;entryY=0.5;entryDx=0;entryDy=0;exitX=1;exitY=0.5;exitDx=0;exitDy=0;" edge="1" parent="1" source="PEM2BeyOKRfzRq0CKwj5-36" target="PEM2BeyOKRfzRq0CKwj5-44">
          <mxGeometry width="50" height="50" relative="1" as="geometry">
            <mxPoint x="500" y="500" as="sourcePoint" />
            <mxPoint x="550" y="450" as="targetPoint" />
          </mxGeometry>
        </mxCell>
        <mxCell id="PEM2BeyOKRfzRq0CKwj5-64" value="" style="endArrow=none;html=1;rounded=0;entryX=0.5;entryY=1;entryDx=0;entryDy=0;exitX=0.75;exitY=0;exitDx=0;exitDy=0;" edge="1" parent="1" source="PEM2BeyOKRfzRq0CKwj5-20" target="PEM2BeyOKRfzRq0CKwj5-36">
          <mxGeometry width="50" height="50" relative="1" as="geometry">
            <mxPoint x="480" y="450" as="sourcePoint" />
            <mxPoint x="550" y="450" as="targetPoint" />
          </mxGeometry>
        </mxCell>
        <mxCell id="PEM2BeyOKRfzRq0CKwj5-65" value="" style="endArrow=none;html=1;rounded=0;entryX=0;entryY=0.75;entryDx=0;entryDy=0;exitX=1;exitY=0.5;exitDx=0;exitDy=0;" edge="1" parent="1" source="PEM2BeyOKRfzRq0CKwj5-39" target="PEM2BeyOKRfzRq0CKwj5-46">
          <mxGeometry width="50" height="50" relative="1" as="geometry">
            <mxPoint x="500" y="500" as="sourcePoint" />
            <mxPoint x="550" y="450" as="targetPoint" />
          </mxGeometry>
        </mxCell>
        <mxCell id="PEM2BeyOKRfzRq0CKwj5-66" value="" style="endArrow=none;html=1;rounded=0;entryX=1;entryY=0.5;entryDx=0;entryDy=0;exitX=0;exitY=0;exitDx=0;exitDy=0;" edge="1" parent="1" source="PEM2BeyOKRfzRq0CKwj5-39" target="PEM2BeyOKRfzRq0CKwj5-61">
          <mxGeometry width="50" height="50" relative="1" as="geometry">
            <mxPoint x="500" y="500" as="sourcePoint" />
            <mxPoint x="550" y="450" as="targetPoint" />
          </mxGeometry>
        </mxCell>
        <mxCell id="PEM2BeyOKRfzRq0CKwj5-67" value="" style="endArrow=none;html=1;rounded=0;exitX=1;exitY=0.75;exitDx=0;exitDy=0;entryX=0;entryY=0.5;entryDx=0;entryDy=0;" edge="1" parent="1" source="PEM2BeyOKRfzRq0CKwj5-59" target="PEM2BeyOKRfzRq0CKwj5-36">
          <mxGeometry width="50" height="50" relative="1" as="geometry">
            <mxPoint x="540" y="450" as="sourcePoint" />
            <mxPoint x="590" y="400" as="targetPoint" />
          </mxGeometry>
        </mxCell>
      </root>
    </mxGraphModel>
  </diagram>
</mxfile>
